<svg width="22" height="22" viewBox="0 0 22 22" fill="none" xmlns="http://www.w3.org/2000/svg">
<path d="M10.793 5.25629C7.73579 5.24666 5.25148 7.72135 5.24185 10.7786C5.23222 13.8358 7.7069 16.3201 10.7641 16.3298C13.8214 16.3394 16.3057 13.8647 16.3153 10.8075C16.325 7.75023 13.8503 5.26592 10.793 5.25629ZM10.7641 7.20137C12.7477 7.19174 14.3606 8.79499 14.3703 10.7786C14.3799 12.7622 12.7766 14.3751 10.793 14.3847C8.80944 14.3943 7.19656 12.7911 7.18693 10.8075C7.1773 8.82388 8.78055 7.211 10.7641 7.20137ZM15.2609 5.03001C15.2609 4.31745 15.8387 3.73971 16.5512 3.73971C17.2638 3.73971 17.8415 4.31745 17.8415 5.03001C17.8415 5.74256 17.2638 6.32031 16.5512 6.32031C15.8387 6.32031 15.2609 5.74256 15.2609 5.03001ZM21.5054 6.33957C21.4236 4.61114 21.0288 3.08011 19.7626 1.8187C18.5011 0.557285 16.9701 0.162491 15.2417 0.0758293C13.4603 -0.0252764 8.12095 -0.0252764 6.33957 0.0758293C4.61596 0.157677 3.08493 0.55247 1.8187 1.81388C0.55247 3.0753 0.162491 4.60633 0.0758293 6.33475C-0.0252764 8.11614 -0.0252764 13.4555 0.0758293 15.2369C0.157677 16.9653 0.55247 18.4963 1.8187 19.7577C3.08493 21.0192 4.61114 21.4139 6.33957 21.5006C8.12095 21.6017 13.4603 21.6017 15.2417 21.5006C16.9701 21.4188 18.5011 21.024 19.7626 19.7577C21.024 18.4963 21.4188 16.9653 21.5054 15.2369C21.6065 13.4555 21.6065 8.12095 21.5054 6.33957ZM19.2041 17.1482C18.8285 18.0919 18.1015 18.8189 17.1531 19.1992C15.7328 19.7626 12.3626 19.6326 10.793 19.6326C9.22349 19.6326 5.84848 19.7577 4.433 19.1992C3.48935 18.8237 2.76235 18.0967 2.382 17.1482C1.8187 15.728 1.94869 12.3578 1.94869 10.7882C1.94869 9.21867 1.82351 5.84367 2.382 4.42819C2.75754 3.48454 3.48454 2.75754 4.433 2.37719C5.8533 1.81388 9.22349 1.94388 10.793 1.94388C12.3626 1.94388 15.7376 1.8187 17.1531 2.37719C18.0967 2.75272 18.8237 3.47972 19.2041 4.42819C19.7674 5.84848 19.6374 9.21867 19.6374 10.7882C19.6374 12.3578 19.7674 15.7328 19.2041 17.1482Z" fill="#DF6E1C"/>
</svg>
