<?xml version="1.0" encoding="UTF-8"?>
<svg id="Livello_2" data-name="Livello 2" xmlns="http://www.w3.org/2000/svg" viewBox="0 0 978.12 879.28">
  <defs>
    <style>
      .cls-1 {
        fill: #2a306a;
      }

      .cls-2 {
        fill: #df6e1c;
      }
    </style>
  </defs>
  <g id="Livello_1-2" data-name="Livello 1">
    <g>
      <g>
        <path class="cls-2" d="M456.81,205.75c-107.23-69.39-229.86-59.7-264.25-55.23-5.46.71-9.52,5.35-9.61,10.85-5.41,339.46,250.3,448.46,286.35,462.13,2.66,1.01,5.6,1,8.23-.06,47.77-19.25,90.18-51.66,104.22-62.99,3.14-2.53,5.07-6.25,5.32-10.27,6.57-108.36-6.49-264.35-130.26-344.43ZM569.98,548.5s-20.41,23.19-96.48,57.51c0,0-281.05-109.93-271.78-437.84,0,0,196.65-27.83,303.32,103.89,0,0,76.99,80.7,64.93,276.44Z"/>
        <path class="cls-1" d="M785.4,128.11c-42.86-51.54-186.26-151.86-345.43-122.99-124.15,22.5-194.82,88.39-221.05,116.51-3.93,4.22-.47,11.04,5.26,10.37,40.9-4.75,153.34-10.71,260.21,62.93,127.01,87.52,123.54,271.91,117.82,324.99-.52,4.85,5.36,7.85,9.35,5.04,188.64-133.01,173.83-396.86,173.83-396.86ZM621.24,494.46S660.34,104.66,252.04,111.82c0,0,158.39-142.2,358.49-75.96,0,0,80.52,23.83,155.36,99.51,0,0,20.19,217.4-144.66,359.1Z"/>
      </g>
      <g>
        <path class="cls-1" d="M171.02,829.15v-111.45c0-3.06,14.08-2.72,16.57-2.49,2.24.2,5.42.5,5.94,3.21l-.63,156.69c0,1.37-.58,2.75-1.71,3.52-3.66,2.52-8.62-2.97-11.37-5.88-29.89-31.67-57.65-69.54-86.56-102.68-2.08-2.38-4.57-6.05-7.4-7.02v111.45c0,.53-1.71,1.59-2.48,1.74-2.2.42-15.36.43-17.58.02-1.71-.31-2.13-1.64-2.42-3.21l.48-155.31c0-1.37.58-2.7,1.64-3.56,3.06-2.49,6.55.33,9.46,3.16,29.93,34.58,58.6,70.33,88.66,104.8,2.08,2.38,4.57,6.05,7.4,7.02Z"/>
        <path class="cls-1" d="M4.02,715.41c3.6-.64,17.62-1.36,18.47,3.01l-.62,156.85c-.48.61-1.11.83-1.85.97-2.23.42-15.33.42-17.56,0-1.42-.27-2.26-1.02-2.46-2.46l.62-155.66c0-.88.5-1.69,1.3-2.05.73-.32,1.56-.56,2.11-.66Z"/>
      </g>
      <g>
        <path class="cls-1" d="M732.4,844.72l20.74-77.42c.04-.15,1.05-1.63,1.28-1.76,2.27-1.28,12.9-1.45,14.26,0,.64.68.23,2.31.25,3.29l-27.84,104.18c-3.61,10.63-7.66,5.55-10.81.72-15.53-23.74-28.18-50.71-43.22-74.96-.28-.45-.57-1.09-1.13-1.24l-20.74,77.42c-.17.62-1.96,2.06-2.82,2.2-2.12.35-9.22.27-11.35.03-1.99-.22-1.86-1.48-1.77-3.26l27.99-104.68c1.35-3.84,3.28-7.87,7.19-5.24,15.84,24.63,29.95,50.65,44.81,76.03.94,1.6,1.94,3.3,3.17,4.68Z"/>
        <path class="cls-1" d="M631.84,877.16c-2.54.29-8.47.29-10.87,0-2.76-.33-3.36-1.93-3.96-4.25-2.84-11.08-4.68-23.79-6.96-35.25-2.98-14.95-5.79-30.01-8.53-45.06-.72.05-.96.76-1.32,1.21-20.46,26.09-38.68,54.33-59.08,80.55-1.24,1.23-2.75,2.68-4.39,2.76-8.18.37-14.93.22-14.93.22h0s-7.04,0-7.04,0c-3.54-.02-7.45-.2-8.46-.64-1.7-.75-2.33-3.33-3.02-4.99-6.32-15.31-10.82-31.74-17-47.14-.08-.45.56-1.72.88-1.9.49-.28,8.4-1.19,10.32-1.69,13.23-3.38,20.48-11.56,22.63-24.19,2.4-14.06-12.25-16.95-23.62-17.47-5.88-.28-12.59-.14-18.63.51l-25.35,94.62c-.32.74-1.68,2.38-2.51,2.61-1.47.41-9.45.27-11.3.12-1.99-.16-2.48-.7-2.41-2.76l28.59-106.59c.62-2.69,3.16-3.04,5.49-3.24,8.49-.75,20.66-.34,29.09-.02,26.61,1,46.52,8.5,35.3,40.07-3.13,8.8-10.7,16.77-19.34,21.29-2.45,1.28-5.48,2.07-7.55,3.14-.56.3-1.05.39-1.17,1.11l16.55,45.23c-.08.1-.15.19-.21.28h.21s.03-.08.05-.13l-.05-.15c17.05-22.72,43.23-59.61,76.27-102.65,1.96-2.55,7.14-10.48,10.27-10.16,1.97.9,2.48,3.43,3.01,5.41,9.07,33.91,13.31,70.31,22.11,104.38.3,2.62.74,4.34-3.08,4.76Z"/>
        <path class="cls-1" d="M360.86,765.69c.38.5.13,1.84-.06,2.57l-17.44,64.93c-4.26,15.88,1.39,29.5,18.12,30.72,20.65,1.51,35.79-10.91,42.62-31.24l17.73-65.76c.81-1.92,3.04-2.16,4.7-2.32,2.07-.19,10.53-.31,10.94,1.46l-18.25,69.09c-9.59,29.15-34.81,45.95-63.28,43.97-27.54-1.92-34.8-22.58-28.03-48.91l16.33-60.95c.23-.87,1.21-2.88,1.87-3.49,1.95-1.76,13.56-1.61,14.73-.09Z"/>
        <path class="cls-1" d="M923.17,779.89l-8.81,32.87c.85.23,30.37-.33,43.42.52,2.52.31,1.95,2.49,1.52,4.62-.42,2.12-1.97,9.3-4.52,10.01l-44.65.58-8.88,33.13,48.44.3c1.52.03,2.03.75,2.21.98.8,1.01-1.78,10.11-2.53,12.02-.51,1.31-.96,1.87-2.34,2.12l-63.83-.12c-.94,0-1.49-.76-1.24-1.7l28.97-108.1c.24-.9,1.11-1.7,2.03-2.1.99-.43,2.15-.44,3.2-.43l58.57.07c1.61.32,3.3.49,3.38,2.38.06,1.47-1.79,8.4-2.5,10.07-.59,1.38-1.87,2.81-3.4,2.75l-46.34-.05c-.96,0,0,0-2.71.09Z"/>
        <path class="cls-1" d="M283.68,763.26c12.17-.69,24.48,3.11,32.61,9.78,1.17.96,4.54,3.54,4.28,5.15-.14.87-7.54,8.93-8.76,9.97-.68.59-1.54,1.3-2.38,1.38-1.77.18-6.33-4.43-8.04-5.54-10.01-6.52-33.26-10.46-42.78,6.16-11.55,20.17,16.72,22.31,28.23,27.02,11.66,4.77,19.97,11.77,16.73,26.78-7.97,36.93-57.39,41.93-78.65,27.02-1.76-1.24-8.22-6.13-7.63-8.32.33-1.23,8.24-9.45,9.6-10.36,2.94-1.97,4.55,1.46,6.31,2.85,9.61,7.56,21.86,12.13,37,7.15,14.79-4.86,22.55-21.38,10.79-28.49-14.08-8.51-42.73-7-42.59-29.3.15-23.78,22.39-39.95,45.29-41.25Z"/>
        <path class="cls-1" d="M847.22,763.26c12.21-.65,24.43,2.86,33.12,8.99,1.9,1.34,5.97,4.59,7.15,6.39.38.58.67,1.07.46,1.92-.34,1.33-7.24,8.46-8.71,9.55-.7.52-1.38.99-2.2.99-1.45,0-6.49-4.84-8.17-5.95-27.27-18.01-68.02,1.46-76.21,38.67-8.03,36.51,25.93,50.62,60.37,31.91,3.26-1.77,7.83-6.34,10.08-3.61.82.99,3.66,7.81,3.32,9.06-.56,2.03-7.04,5.82-9.16,7.03-38.44,22.02-82.12,10.08-83.15-29.03-.98-37.39,33.32-73.82,73.08-75.93Z"/>
      </g>
    </g>
  </g>
</svg>