<?xml version="1.0" encoding="UTF-8"?>
<svg id="Livello_2" data-name="Livello 2" xmlns="http://www.w3.org/2000/svg" viewBox="0 0 602.8 624.25">
  <defs>
    <style>
      .cls-1 {
        fill: #2a306a;
      }

      .cls-2 {
        fill: #df6e1c;
      }
    </style>
  </defs>
  <g id="Livello_1-2" data-name="Livello 1">
    <g>
      <path class="cls-2" d="M273.94,205.75C166.7,136.36,44.08,146.05,9.69,150.52c-5.46.71-9.52,5.35-9.61,10.85-5.41,339.46,250.3,448.46,286.35,462.13,2.66,1.01,5.6,1,8.23-.06,47.77-19.25,90.18-51.66,104.22-62.99,3.14-2.53,5.07-6.25,5.32-10.27,6.57-108.36-6.49-264.35-130.26-344.43ZM387.11,548.5s-20.41,23.19-96.48,57.51c0,0-281.05-109.93-271.78-437.84,0,0,196.65-27.83,303.32,103.89,0,0,76.99,80.7,64.93,276.44Z"/>
      <path class="cls-1" d="M602.53,128.11C559.67,76.57,416.27-23.75,257.1,5.12,132.95,27.62,62.29,93.51,36.05,121.63c-3.93,4.22-.47,11.04,5.26,10.37,40.9-4.75,153.34-10.71,260.21,62.93,127.01,87.52,123.54,271.91,117.82,324.99-.52,4.85,5.36,7.85,9.35,5.04,188.64-133.01,173.83-396.86,173.83-396.86ZM438.36,494.46S477.47,104.66,69.17,111.82c0,0,158.39-142.2,358.49-75.96,0,0,80.52,23.83,155.36,99.51,0,0,20.19,217.4-144.66,359.1Z"/>
    </g>
  </g>
</svg>